#!OML:ASF H:\MichaelJackson\Top Level 1\Subject 1\Session 1\male.ASF
:FULLY-SPECIFIED
:DEGREES
411
root 0.29001 15.8696 21.2225 11.7063 3.4261 -2.53642
lowerback 9.31105 2.25669 2.4319
upperback 3.15648 3.24818 1.6188
thorax -1.89745 1.61572 -0.0402222
lowerneck -7.11127 -2.81882 2.77279
upperneck -0.433181 -3.97508 -0.500705
head 0.986362 -1.9969 -0.732947
rclavicle 6.26172e-014 -1.66979e-014
rhumerus -41.1426 -15.1238 -76.9591
rradius 81.8246
rwrist -30.4966
rhand -30.331 -40.0512
rfingers 7.12502
rthumb -3.63706 -430
lclavicle 6.26172e-014 -1.66979e-014
lhumerus -55.0947 -39.1371 117.002
lradius 82.9002
lwrist 18.643
lhand -7.35327 10.0957
lfingers 7.12502
lthumb 18.531 39.233
rfemur -40.4585 -10.5374 13.7256
rtibia 54.3462
rfoot -23.2823 2.40723
rtoes -26.4357
lfemur -46.6678 19.0633 -7.76971
ltibia 112.597
lfoot 0.0892531 -8.4863
ltoes 13.248
412
root 0.286424 15.8886 21.2866 11.4609 3.14053 -3.00458
lowerback 9.71001 2.4395 2.86644
upperback 3.23462 3.5455 1.76475
thorax -2.01311 1.76222 -0.179635
lowerneck -7.20875 -2.8489 2.7716
upperneck -0.519352 -4.01656 -0.561791
head 0.973986 -2.01959 -0.753594
rclavicle 2.60408e-014 1.03368e-014
rhumerus -40.9552 -15.8186 -76.3931
rradius 80.825
rwrist -31.0256
rhand -31.6835 -42.5105
rfingers 7.12502
rthumb -4.94316 -432.433
lclavicle 2.60408e-014 1.03368e-014
lhumerus -55.0746 -38.9678 117.067
lradius 84.8149
lwrist 19.788
lhand -9.77174 8.79494
lfingers 7.12502
lthumb 16.2034 38.1378
rfemur -39.8384 -10.3539 14.2188
rtibia 53.9651
rfoot -23.2981 2.70126
rtoes -26.0006
lfemur -48.7895 20.9108 -8.90128
ltibia 115.693
lfoot -0.304416 -8.71629
ltoes 14.1933
413
root 0.284086 15.9036 21.3521 11.1656 2.87489 -3.48297
lowerback 10.1304 2.6119 3.31066
upperback 3.31908 3.83461 1.91583
thorax -2.13036 1.90419 -0.321127
lowerneck -7.30491 -2.88937 2.751
upperneck -0.597078 -4.07052 -0.610091
head 0.964365 -2.04821 -0.767471
rclavicle 5.1684e-015 7.15625e-015
rhumerus -40.8884 -16.2122 -75.9426
rradius 80.1407
rwrist -31.1939
rhand -32.659 -43.6971
rfingers 7.12502
rthumb -5.88496 -433.595
lclavicle 5.1684e-015 7.15625e-015
lhumerus -55.004 -38.7596 117.07
lradius 86.7748
lwrist 21.0268
lhand -12.1402 7.56261
lfingers 7.12502
lthumb 13.9219 37.0766
rfemur -39.1644 -10.1465 14.6949
rtibia 53.6291
rfoot -23.3467 2.93984
rtoes -25.614
lfemur -50.7869 22.6182 -9.98815
ltibia 118.478
lfoot -0.702356 -8.9963
ltoes 15.381
414
root 0.282475 15.9146 21.419 10.8475 2.63264 -3.93572
lowerback 10.5515 2.7715 3.73341
upperback 3.39764 4.10854 2.05464
thorax -2.25178 2.03805 -0.46383
lowerneck -7.39009 -2.93633 2.72391
upperneck -0.65772 -4.13253 -0.644643
head 0.958467 -2.08042 -0.776255
rclavicle 7.5737e-014 2.38542e-015
rhumerus -40.9428 -16.2799 -75.646
rradius 79.7691
rwrist -30.7777
rhand -33.2983 -43.6669
rfingers 7.12502
rthumb -6.50217 -433.547
lclavicle 7.5737e-014 2.38542e-015
lhumerus -54.8856 -38.525 116.993
lradius 88.7535
lwrist 22.2685
lhand -14.3547 6.49463
lfingers 7.12502
lthumb 11.7871 36.1429
rfemur -38.465 -9.9048 15.1177
rtibia 53.3435
rfoot -23.4283 3.10421
rtoes -25.2712
lfemur -52.6861 24.1232 -11.0455
ltibia 120.923
lfoot -1.0641 -9.31139
ltoes 16.539
415
root 0.281329 15.9225 21.4874 10.5287 2.41953 -4.33966
lowerback 10.9428 2.91324 4.10585
upperback 3.46874 4.3556 2.17781
thorax -2.36496 2.15826 -0.591955
lowerneck -7.46524 -2.9834 2.68909
upperneck -0.691565 -4.19397 -0.667112
head 0.95971 -2.11187 -0.780208
rclavicle 7.35503e-015 2.62396e-014
rhumerus -41.0849 -16.0086 -75.5201
rradius 79.6738
rwrist -29.6402
rhand -33.6611 -42.6796
rfingers 7.12502
rthumb -6.85239 -432.549
lclavicle 7.35503e-015 2.62396e-014
lhumerus -54.696 -38.2586 116.815
lradius 90.7213
lwrist 23.4108
lhand -16.4191 5.5937
lfingers 7.12502
lthumb 9.79583 35.3459
rfemur -37.7229 -9.62245 15.4663
rtibia 53.0034
rfoot -23.4795 3.19255
rtoes -24.9864
lfemur -54.5277 25.3623 -12.0756
ltibia 122.989
lfoot -1.33738 -9.61518
ltoes 17.5288
416
root 0.280409 15.9276 21.5574 10.2363 2.24488 -4.68188
lowerback 11.2804 3.0308 4.41971
upperback 3.52158 4.56435 2.2753
thorax -2.46942 2.25925 -0.708469
lowerneck -7.532 -3.02286 2.66135
upperneck -0.684939 -4.24578 -0.681508
head 0.972558 -2.13799 -0.783085
rclavicle 3.08116e-014 -7.95139e-016
rhumerus -41.2937 -15.4362 -75.5762
rradius 79.8295
rwrist -27.7568
rhand -33.8524 -41.0847
rfingers 7.12502
rthumb -7.03708 -430.948
lclavicle 3.08116e-014 -7.95139e-016
lhumerus -54.4342 -37.9582 116.515
lradius 92.6535
lwrist 24.38
lhand -18.3053 4.88807
lfingers 7.12502
lthumb 7.97565 34.7176
rfemur -37.0036 -9.30267 15.7356
rtibia 52.7086
rfoot -23.5595 3.16547
rtoes -24.7816
lfemur -56.3228 26.284 -13.0718
ltibia 124.681
lfoot -1.55108 -9.83139
ltoes 18.2414
417
root 0.283952 15.9665 21.6309 9.97945 2.1217 -4.96446
lowerback 11.5528 3.11926 4.677
upperback 3.5553 4.72672 2.3464
thorax -2.56091 2.33723 -0.812928
lowerneck -7.58685 -3.05058 2.65851
upperneck -0.636629 -4.28373 -0.700726
head 0.996317 -2.15691 -0.791717
rclavicle 1.03368e-014 -2.38542e-015
rhumerus -41.5402 -14.6302 -75.8027
rradius 80.2064
rwrist -25.2363
rhand -33.9231 -39.2309
rfingers 7.12502
rthumb -7.10529 -429.092
lclavicle 1.03368e-014 -2.38542e-015
lhumerus -54.0946 -37.6067 116.076
lradius 94.5347
lwrist 25.1014
lhand -20.0463 4.3077
lfingers 7.12502
lthumb 6.29511 34.1942
rfemur -36.1802 -8.95038 15.9453
rtibia 52.3294
rfoot -23.671 2.99802
rtoes -24.6807
lfemur -57.8867 26.7696 -14.0662
ltibia 125.749
lfoot -1.64907 -9.82011
ltoes 18.7327
418
root 0.283134 15.9687 21.7033 9.75726 2.0493 -5.19556
lowerback 11.7577 3.17486 4.88303
upperback 3.5726 4.83713 2.39344
thorax -2.63628 2.38969 -0.904364
lowerneck -7.62908 -3.06 2.67924
upperneck -0.548902 -4.29904 -0.718896
head 1.03046 -2.16413 -0.803753
rclavicle 2.18663e-014 -5.56597e-015
rhumerus -41.7935 -13.6607 -76.174
rradius 80.7829
rwrist -22.3232
rhand -34.0617 -37.7236
rfingers 7.12502
rthumb -7.23908 -427.58
lclavicle 2.18663e-014 -5.56597e-015
lhumerus -53.6711 -37.1909 115.484
lradius 96.3572
lwrist 25.5869
lhand -21.6779 3.80932
lfingers 7.12502
lthumb 4.71981 33.7367
rfemur -35.5259 -8.58942 16.0965
rtibia 52.107
rfoot -23.7835 2.72065
rtoes -24.688
lfemur -59.5796 26.997 -14.8903
ltibia 126.667
lfoot -1.77697 -9.67858
ltoes 18.9519
